<?xml version="1.0" encoding="UTF-8" standalone="no"?>
<!--
  Atlassian Marketplace banner — 1120 × 548.

  Guidance from Atlassian (Building your presence on Marketplace):
    - Required size: 1120×548 (high-res) or 560×274 (standard).
    - Should feature the app name, partner name, and a brief
      functionality description.

  Design choices:
    - Off-white background (#FAFBFC) keeps the focus on the app icon
      and title, and avoids clashing with Atlassian's own chrome on
      listing pages.
    - The app icon is inlined as a <symbol> so this file is
      self-contained — no runtime dependency on app-icon.svg or
      app-icon.png. Scales to any resolution without loss.
    - The four-colour strip across the bottom (green / yellow / orange
      / red) is the product's own brand motif — it mirrors the four
      classification levels shown in the icon's folder tabs, so the
      banner reads as the same product family at a glance.
    - Typography: Helvetica → Arial → sans-serif. Avoids a web-font
      dependency so the banner renders identically in any SVG viewer
      or PNG exporter.
-->
<svg
  viewBox="0 0 1120 548"
  width="1120"
  height="548"
  xmlns="http://www.w3.org/2000/svg">

  <!-- Off-white background — kept as the first drawn element so it sits
       behind everything else. -->
  <rect width="1120" height="548" fill="#FAFBFC" />

  <!-- ====================================================================
       Icon — inlined from icon/app-icon.svg.

       We don't use <symbol>+<use> here because not every SVG renderer
       (notably ImageMagick via RSVG) follows that reference chain. An
       inline <g> with a composite transform keeps the banner rendering
       consistently across renderers.

       Math: the icon is drawn in a 144×144 viewBox. We want it 300×300
       at (80, 120) on the 1120×548 banner. scale = 300/144 ≈ 2.0833.
       ==================================================================== -->
  <g transform="translate(80,120) scale(2.0833)">
    <g transform="matrix(-0.94446419,0,0,0.94446419,353.02139,-23.340581)">
      <path
        style="opacity:0.624581;fill:#ffffff;fill-opacity:1;stroke:none;stroke-width:4.35701"
        d="m 264.81168,66.452235 2.49253,-3.020533 h 33.78756 l 13.57041,-12.08214 45.69629,-0.335614 4.1542,4.362993 0.27695,69.472299 -1.66168,3.35615 -3.04642,1.67807 -93.88509,-0.33561 -2.49253,-3.02054 -0.27695,-4.02738 L 263.15,69.137154 Z" />
      <g transform="matrix(0.69732732,0,0,0.92161931,227.18621,10.900739)">
        <path
          style="opacity:0.624581;fill:#f9c84e;fill-opacity:1;stroke:none;stroke-width:5.17264"
          d="M 65.590786,38.25474 C 68.104691,36.484745 119.4602,36.130746 119.4602,36.130746 l 10.05562,8.495976 -16.16082,12.389963 -43.454662,0.353997 -5.027811,2.821733 z" />
        <g>
          <path
            style="opacity:1;fill:#000000"
            d="m 140.73242,20.988281 c -27.18867,-0.07999 -25.96714,-0.15603 -28.41797,1.78125 -0.95205,0.75255 -1.57056,1.548831 -2.20507,2.837891 l -0.88282,1.792969 0.084,41.412109 c 0.0934,46.58717 -0.0849,42.83339 2.13476,45.30469 1.10094,1.22574 2.53338,2.15968 4,2.60742 0.36381,0.11107 28.05345,0.21211 61.53321,0.22461 67.5596,0.0252 62.25555,0.16951 64.80468,-1.76953 0.95887,-0.72937 1.5788,-1.50641 2.25,-2.82227 l 0.92578,-1.81445 V 72.679688 34.818359 l -0.57226,-1.236328 c -0.80975,-1.75211 -2.54321,-3.525159 -4.28516,-4.380859 l -1.49414,-0.732422 h -30.0293 c -27.97404,0 -30.10996,0.03191 -31.1875,0.462891 l -1.15624,0.46289 -4.4004,-3.541015 c -2.41973,-1.94737 -4.93499,-3.823579 -5.58984,-4.167969 l -1.18945,-0.625 z m -0.44336,2.855469 c 22.13679,0.0055 23.5006,0.03355 24.5,0.490234 0.98284,0.44912 8.639,6.444575 8.80664,6.896485 0.0914,0.24624 -11.64808,9.813876 -13.08008,10.660156 l -1.01757,0.601563 -21.98438,0.130859 -21.98437,0.132812 -1.62891,0.839844 -1.63086,0.841797 -0.0664,-6.132812 c -0.10671,-9.893201 -0.0905,-10.22463 0.55079,-11.47461 0.62979,-1.22751 1.82134,-2.232036 3.19336,-2.691406 0.6459,-0.21621 7.50633,-0.298922 24.34179,-0.294922 z m 38.49414,7.667969 h 29.5918 c 28.92469,0 29.61608,0.01176 30.61523,0.521484 1.44776,0.7386 2.59197,2.237715 2.92188,3.828125 0.18818,0.90703 0.25513,13.080825 0.20703,37.740234 l -0.0703,36.400388 -0.79688,1.30274 c -0.59706,0.97785 -1.15068,1.48287 -2.22851,2.02929 l -1.43555,0.72657 -60.34375,-0.0117 c -50.55083,-0.01 -60.51103,-0.0698 -61.36719,-0.375 -1.30425,-0.46495 -2.48184,-1.57295 -3.10547,-2.91992 -0.46779,-1.0104 -0.49023,-2.41326 -0.49023,-30.957035 0,-28.518638 0.0217,-29.947249 0.48828,-30.974609 0.62016,-1.36541 2.14441,-2.62914 3.61719,-3 0.7765,-0.19555 7.88547,-0.289063 22.14648,-0.289063 18.46987,0 21.15072,-0.04939 22.23242,-0.417969 1.10361,-0.37603 7.09101,-4.962159 14.00391,-10.724609 0.91361,-0.76156 2.19094,-1.719529 2.83789,-2.130859 z"
            transform="translate(-46.457581,14.223854)" />
        </g>
      </g>
      <g transform="matrix(0.82810502,0,0,0.96962167,213.89203,-4.8083927)">
        <path
          style="fill:#ffffff;fill-opacity:1;stroke:none;stroke-width:5.20999"
          d="m 49.944467,83.848373 3.281023,-3.281021 h 44.476093 l 17.863347,-13.124095 60.1521,-0.364557 5.46837,4.739254 0.36456,75.463536 -2.18735,3.64558 -4.01014,1.82279 -123.585212,-0.36455 -3.281024,-3.28103 -0.364559,-4.3747 -0.364559,-57.964742 z" />
        <g>
          <path
            style="fill:#8fb8f6;fill-opacity:1;stroke:none;stroke-width:5.17264"
            d="m 49.918984,61.739471 c 2.513905,-1.769995 53.869406,-2.123994 53.869406,-2.123994 l 10.05562,8.495976 -16.160818,12.389963 -43.454656,0.353997 -5.027811,2.821733 z" />
          <path
            style="fill:#000000"
            d="m 140.73242,20.988281 c -27.18867,-0.07999 -25.96714,-0.15603 -28.41797,1.78125 -0.95205,0.75255 -1.57056,1.548831 -2.20507,2.837891 l -0.88282,1.792969 0.084,41.412109 c 0.0934,46.58717 -0.0849,42.83339 2.13476,45.30469 1.10094,1.22574 2.53338,2.15968 4,2.60742 0.36381,0.11107 28.05345,0.21211 61.53321,0.22461 67.5596,0.0252 62.25555,0.16951 64.80468,-1.76953 0.95887,-0.72937 1.5788,-1.50641 2.25,-2.82227 l 0.92578,-1.81445 V 72.679688 34.818359 l -0.57226,-1.236328 c -0.80975,-1.75211 -2.54321,-3.525159 -4.28516,-4.380859 l -1.49414,-0.732422 h -30.0293 c -27.97404,0 -30.10996,0.03191 -31.1875,0.462891 l -1.15624,0.46289 -4.4004,-3.541015 c -2.41973,-1.94737 -4.93499,-3.823579 -5.58984,-4.167969 l -1.18945,-0.625 z m -0.44336,2.855469 c 22.13679,0.0055 23.5006,0.03355 24.5,0.490234 0.98284,0.44912 8.639,6.444575 8.80664,6.896485 0.0914,0.24624 -11.64808,9.813876 -13.08008,10.660156 l -1.01757,0.601563 -21.98438,0.130859 -21.98437,0.132812 -1.62891,0.839844 -1.63086,0.841797 -0.0664,-6.132812 c -0.10671,-9.893201 -0.0905,-10.22463 0.55079,-11.47461 0.62979,-1.22751 1.82134,-2.232036 3.19336,-2.691406 0.6459,-0.21621 7.50633,-0.298922 24.34179,-0.294922 z m 38.49414,7.667969 h 29.5918 c 28.92469,0 29.61608,0.01176 30.61523,0.521484 1.44776,0.7386 2.59197,2.237715 2.92188,3.828125 0.18818,0.90703 0.25513,13.080825 0.20703,37.740234 l -0.0703,36.400388 -0.79688,1.30274 c -0.59706,0.97785 -1.15068,1.48287 -2.22851,2.02929 l -1.43555,0.72657 -60.34375,-0.0117 c -50.55083,-0.01 -60.51103,-0.0698 -61.36719,-0.375 -1.30425,-0.46495 -2.48184,-1.57295 -3.10547,-2.91992 -0.46779,-1.0104 -0.49023,-2.41326 -0.49023,-30.957035 0,-28.518638 0.0217,-29.947249 0.48828,-30.974609 0.62016,-1.36541 2.14441,-2.62914 3.61719,-3 0.7765,-0.19555 7.88547,-0.289063 22.14648,-0.289063 18.46987,0 21.15072,-0.04939 22.23242,-0.417969 1.10361,-0.37603 7.09101,-4.962159 14.00391,-10.724609 0.91361,-0.76156 2.19094,-1.719529 2.83789,-2.130859 z"
            transform="translate(-62.129383,37.708585)" />
        </g>
      </g>
      <g transform="translate(182.38785,3.8993549)">
        <path
          style="fill:#ffffff;fill-opacity:1;stroke:none;stroke-width:5.20999"
          d="m 49.944467,83.848373 3.281023,-3.281021 h 44.476093 l 17.863347,-13.124095 60.1521,-0.364557 5.46837,4.739254 0.36456,75.463536 -2.18735,3.64558 -4.01014,1.82279 -123.585212,-0.36455 -3.281024,-3.28103 -0.364559,-4.3747 -0.364559,-57.964742 z" />
        <g>
          <path
            style="fill:#b3df72;fill-opacity:1;stroke:none;stroke-width:5.17264"
            d="m 49.918984,61.739471 c 2.513905,-1.769995 53.869406,-2.123994 53.869406,-2.123994 l 10.05562,8.495976 -16.160818,12.389963 -43.454656,0.353997 -5.027811,2.821733 z" />
          <path
            style="fill:#000000"
            d="m 140.73242,20.988281 c -27.18867,-0.07999 -25.96714,-0.15603 -28.41797,1.78125 -0.95205,0.75255 -1.57056,1.548831 -2.20507,2.837891 l -0.88282,1.792969 0.084,41.412109 c 0.0934,46.58717 -0.0849,42.83339 2.13476,45.30469 1.10094,1.22574 2.53338,2.15968 4,2.60742 0.36381,0.11107 28.05345,0.21211 61.53321,0.22461 67.5596,0.0252 62.25555,0.16951 64.80468,-1.76953 0.95887,-0.72937 1.5788,-1.50641 2.25,-2.82227 l 0.92578,-1.81445 V 72.679688 34.818359 l -0.57226,-1.236328 c -0.80975,-1.75211 -2.54321,-3.525159 -4.28516,-4.380859 l -1.49414,-0.732422 h -30.0293 c -27.97404,0 -30.10996,0.03191 -31.1875,0.462891 l -1.15624,0.46289 -4.4004,-3.541015 c -2.41973,-1.94737 -4.93499,-3.823579 -5.58984,-4.167969 l -1.18945,-0.625 z m -0.44336,2.855469 c 22.13679,0.0055 23.5006,0.03355 24.5,0.490234 0.98284,0.44912 8.639,6.444575 8.80664,6.896485 0.0914,0.24624 -11.64808,9.813876 -13.08008,10.660156 l -1.01757,0.601563 -21.98438,0.130859 -21.98437,0.132812 -1.62891,0.839844 -1.63086,0.841797 -0.0664,-6.132812 c -0.10671,-9.893201 -0.0905,-10.22463 0.55079,-11.47461 0.62979,-1.22751 1.82134,-2.232036 3.19336,-2.691406 0.6459,-0.21621 7.50633,-0.298922 24.34179,-0.294922 z m 38.49414,7.667969 h 29.5918 c 28.92469,0 29.61608,0.01176 30.61523,0.521484 1.44776,0.7386 2.59197,2.237715 2.92188,3.828125 0.18818,0.90703 0.25513,13.080825 0.20703,37.740234 l -0.0703,36.400388 -0.79688,1.30274 c -0.59706,0.97785 -1.15068,1.48287 -2.22851,2.02929 l -1.43555,0.72657 -60.34375,-0.0117 c -50.55083,-0.01 -60.51103,-0.0698 -61.36719,-0.375 -1.30425,-0.46495 -2.48184,-1.57295 -3.10547,-2.91992 -0.46779,-1.0104 -0.49023,-2.41326 -0.49023,-30.957035 0,-28.518638 0.0217,-29.947249 0.48828,-30.974609 0.62016,-1.36541 2.14441,-2.62914 3.61719,-3 0.7765,-0.19555 7.88547,-0.289063 22.14648,-0.289063 18.46987,0 21.15072,-0.04939 22.23242,-0.417969 1.10361,-0.37603 7.09101,-4.962159 14.00391,-10.724609 0.91361,-0.76156 2.19094,-1.719529 2.83789,-2.130859 z"
            transform="translate(-62.129383,37.708585)" />
        </g>
      </g>
    </g>
  </g>

  <!-- ====================================================================
       Composition
       ==================================================================== -->

  <!-- Thin vertical divider between icon and text — a neutral grey so
       it reads as "separator" not "border". -->
  <line x1="410" y1="160" x2="410" y2="380" stroke="#DFE1E6" stroke-width="2" />

  <!-- App name: the primary title, in near-black for maximum contrast
       against the off-white background. -->
  <text
    x="450" y="230"
    font-family="Helvetica, Arial, sans-serif"
    font-size="60"
    font-weight="700"
    fill="#172B4D">Information Classification</text>

  <!-- Secondary line: identifies the host product. -->
  <text
    x="450" y="282"
    font-family="Helvetica, Arial, sans-serif"
    font-size="34"
    font-weight="400"
    fill="#42526E">for Confluence</text>

  <!-- Functional description — one sentence, stays legible at the
       standard-res 560×274 crop too. -->
  <text
    x="450" y="350"
    font-family="Helvetica, Arial, sans-serif"
    font-size="22"
    font-weight="400"
    fill="#42526E">Classify pages. Flag restriction gaps. Audit the trail.</text>

  <!-- Partner byline: small, in the bottom-right corner, muted colour
       so it doesn't compete with the title. -->
  <text
    x="1040" y="500"
    font-family="Helvetica, Arial, sans-serif"
    font-size="18"
    font-weight="400"
    fill="#6B778C"
    text-anchor="end">by Matthias Cullmann</text>

  <!-- Classification-level strip across the bottom. Echoes the icon's
       folder-tab colours and signals the product's domain at a glance.
       Public → Internal → Confidential → Secret, left to right. -->
  <rect x="0"    y="540" width="280" height="8" fill="#87c37c" />
  <rect x="280"  y="540" width="280" height="8" fill="#f9c84e" />
  <rect x="560"  y="540" width="280" height="8" fill="#e8804b" />
  <rect x="840"  y="540" width="280" height="8" fill="#c85248" />
</svg>
